<svg width="915" height="494" xmlns="http://www.w3.org/2000/svg" xmlns:xlink="http://www.w3.org/1999/xlink" overflow="hidden"><defs><clipPath id="clip0"><rect x="203" y="174" width="915" height="494"/></clipPath></defs><g clip-path="url(#clip0)" transform="translate(-203 -174)"><path d="M370.5 275.5C370.5 268.32 376.32 262.5 383.5 262.5L453.5 262.5C460.68 262.5 466.5 268.32 466.5 275.5L466.5 327.5C466.5 334.68 460.68 340.5 453.5 340.5L383.5 340.5C376.32 340.5 370.5 334.68 370.5 327.5Z" stroke="#2F528F" stroke-width="1.33333" stroke-miterlimit="8" fill="#8FAADC" fill-rule="evenodd"/><text fill="#FFFFFF" font-family="Calibri,Calibri_MSFontService,sans-serif" font-weight="400" font-size="16" transform="translate(402.766 277)">Dat<tspan x="22.4933" y="0">a</tspan><tspan x="-6.16669" y="19">Fusion </tspan><tspan x="2.91333" y="39">and </tspan><tspan x="-19.4533" y="58">Processing</tspan></text><path d="M208.5 274.5C208.5 267.32 214.32 261.5 221.5 261.5L303.5 261.5C310.68 261.5 316.5 267.32 316.5 274.5L316.5 326.5C316.5 333.68 310.68 339.5 303.5 339.5L221.5 339.5C214.32 339.5 208.5 333.68 208.5 326.5Z" stroke="#2F528F" stroke-width="1.33333" stroke-miterlimit="8" fill="#8FAADC" fill-rule="evenodd"/><text fill="#FFFFFF" font-family="Calibri,Calibri_MSFontService,sans-serif" font-weight="400" font-size="16" transform="translate(239.064 277)">Inertia<tspan x="42.5" y="0">l</tspan><tspan x="1.08" y="19">Sensor </tspan><tspan x="4.24666" y="38">(IMU)</tspan></text><path d="M205.5 184.5 581.62 185.187" stroke="#000000" stroke-width="0.666667" stroke-miterlimit="8" stroke-dasharray="5.33333 2 0.666667 2" fill="none" fill-rule="evenodd"/><path d="M204.5 184.5 204.5 403.443" stroke="#000000" stroke-width="0.666667" stroke-miterlimit="8" stroke-dasharray="5.33333 2 0.666667 2" fill="none" fill-rule="evenodd"/><path d="M581.5 184.5 583.373 401.763" stroke="#000000" stroke-width="0.666667" stroke-miterlimit="8" stroke-dasharray="5.33333 2 0.666667 2" fill="none" fill-rule="evenodd"/><path d="M0 0 378.969 3.09764" stroke="#000000" stroke-width="0.666667" stroke-miterlimit="8" stroke-dasharray="5.33333 2 0.666667 2" fill="none" fill-rule="evenodd" transform="matrix(1 0 0 -1 204.5 401.598)"/><path d="M316.504 300.167 363.834 300.712 363.826 301.379 316.496 300.833ZM362.543 297.03 370.496 301.122 362.451 305.03Z"/><path d="M550.5 326.951 550.5 274.049C550.5 267.118 556.992 261.5 565 261.5 573.008 261.5 579.5 267.118 579.5 274.049L579.5 326.951C579.5 333.882 573.008 339.5 565 339.5 556.992 339.5 550.5 333.882 550.5 326.951Z" stroke="#2F528F" stroke-width="1.33333" stroke-miterlimit="8" fill="#8FAADC" fill-rule="evenodd"/><text fill="#FFFFFF" font-family="Calibri,Calibri_MSFontService,sans-serif" font-weight="400" font-size="13" transform="matrix(-1.83697e-16 -1 1 -1.83697e-16 560.05 317)">MQTT <tspan x="1" y="16">Client</tspan></text><path d="M0.00275581-0.333322 76.9934 0.303215 76.9879 0.969859-0.00275581 0.333322ZM75.6905-3.37435 83.6571 0.691654 75.6243 4.62538Z" transform="matrix(1 0 0 -1 466.5 301.192)"/><path d="M703.243 283.739C700.183 267.906 715.94 253.326 738.439 251.172 747.555 250.299 756.824 251.604 764.763 254.877 773.174 243.718 792.831 239.478 808.666 245.405 811.435 246.441 813.977 247.755 816.211 249.305 822.763 240.055 838.72 236.297 851.853 240.911 855.488 242.188 858.659 244.035 861.122 246.31 871.681 237.563 890.34 236.483 902.798 243.897 908.033 247.013 911.562 251.311 912.779 256.054 930.08 259.376 940.287 271.961 935.576 284.162 935.18 285.187 934.683 286.193 934.089 287.17 947.964 299.883 944.568 318.105 926.502 327.87 920.878 330.909 914.236 332.877 907.216 333.584 907.06 347.261 891.166 358.26 871.716 358.151 865.218 358.114 858.861 356.814 853.348 354.394 846.769 369.728 823.822 378.395 802.094 373.752 792.988 371.807 785.12 367.692 779.833 362.109 757.586 371.554 728.71 366.473 715.337 350.763 715.169 350.565 715.003 350.365 714.84 350.165 700.281 351.364 687.092 344.052 685.384 333.833 684.473 328.386 687.028 322.934 692.367 318.93 679.761 313.706 675.526 302.241 682.909 293.322 687.168 288.176 694.638 284.774 703.022 284.163Z" stroke="#2F528F" stroke-width="1.33333" stroke-miterlimit="8" fill="#8FAADC" fill-rule="evenodd"/><path d="M708.071 320.909C702.689 321.206 697.308 320.33 692.649 318.4M721.677 348.367C719.513 348.974 717.245 349.377 714.93 349.568M779.818 361.561C778.19 359.843 776.827 358.006 775.752 356.083M854.998 347.901C854.758 349.94 854.214 351.954 853.374 353.912M887.276 310.763C899.479 314.943 907.18 323.682 907.071 333.227M933.965 286.837C931.989 290.087 928.972 292.97 925.151 295.26M912.815 255.582C913.152 256.894 913.308 258.227 913.281 259.56M856.526 250.942C857.674 249.106 859.195 247.397 861.041 245.868M814.294 253.359C814.762 251.843 815.497 250.373 816.481 248.984M764.732 254.845C767.604 256.03 770.261 257.455 772.645 259.09M704.625 288.206C703.998 286.745 703.536 285.252 703.244 283.74" stroke="#2F528F" stroke-width="1.33333" stroke-miterlimit="8" fill="none" fill-rule="evenodd"/><text fill="#FFFFFF" font-family="Calibri,Calibri_MSFontService,sans-serif" font-weight="400" font-size="24" transform="translate(754.239 292)">IoT Stack:<tspan font-size="16" x="-26.6733" y="22">MQTT Broker, </tspan><tspan font-size="16" x="66.0333" y="22">Telegraf</tspan><tspan font-size="16" x="116.207" y="22">, </tspan><tspan font-size="16" x="19.48" y="41">InfluxDB</tspan></text><path d="M0.333333-5.56219e-07 0.333427 56.2503-0.333239 56.2503-0.333333 5.56219e-07ZM4.00009 54.9169 0.000104987 62.917-3.99991 54.917Z" transform="matrix(1 0 0 -1 826.5 437.417)"/><path d="M750.5 437.5 1017.59 437.5" stroke="#000000" stroke-width="0.666667" stroke-miterlimit="8" fill="none" fill-rule="evenodd"/><path d="M609.5 437.5 750.59 437.5" stroke="#000000" stroke-width="0.666667" stroke-miterlimit="8" fill="none" fill-rule="evenodd"/><path d="M609.833 437.5 609.833 504.833 609.167 504.833 609.167 437.5ZM613.5 503.5 609.5 511.5 605.5 503.5Z"/><path d="M1017.83 437.5 1017.83 508.259 1017.17 508.259 1017.17 437.5ZM1021.5 506.926 1017.5 514.926 1013.5 506.926Z"/><path d="M493.5 537.334C493.5 523.066 505.066 511.5 519.334 511.5L679.666 511.5C693.934 511.5 705.5 523.066 705.5 537.334L705.5 640.666C705.5 654.934 693.934 666.5 679.666 666.5L519.334 666.5C505.066 666.5 493.5 654.934 493.5 640.666Z" stroke="#2F528F" stroke-width="1.33333" stroke-miterlimit="8" fill="#8FAADC" fill-rule="evenodd"/><text fill="#FFFFFF" font-family="Calibri,Calibri_MSFontService,sans-serif" font-weight="400" font-size="16" transform="translate(509.705 575)">1.<tspan x="24" y="0">Data Analytic</tspan>s<tspan x="119.907" y="0">Service</tspan><tspan x="0" y="38">2.</tspan><tspan x="23.1667" y="38">Configuration Service</tspan></text><path d="M903.5 540.834C903.5 526.842 914.842 515.5 928.834 515.5L1091.17 515.5C1105.16 515.5 1116.5 526.842 1116.5 540.834L1116.5 642.166C1116.5 656.158 1105.16 667.5 1091.17 667.5L928.834 667.5C914.842 667.5 903.5 656.158 903.5 642.166Z" stroke="#2F528F" stroke-width="1.33333" stroke-miterlimit="8" fill="#8FAADC" fill-rule="evenodd"/><text fill="#FFFFFF" font-family="Calibri,Calibri_MSFontService,sans-serif" font-weight="400" font-size="16" transform="translate(920.458 577)">1.<tspan x="24" y="0">Visualisation</tspan><tspan x="0" y="38">2.</tspan><tspan x="24" y="38">C</tspan>onfiguration GUI<tspan font-size="24" x="-376.584" y="-44">Web </tspan><tspan font-size="24" x="-325.964" y="-44">Server</tspan><tspan font-size="24" x="32.9605" y="-43">Web </tspan><tspan font-size="24" x="83.5805" y="-43">Clien</tspan><tspan font-size="24" x="131.86" y="-43">t</tspan></text><path d="M492.86 588.894 361.167 588.894 361.167 406.167 361.833 406.167 361.833 588.561 361.5 588.227 492.86 588.227ZM357.5 407.5 361.5 399.5 365.5 407.5Z"/><path d="M712.167 588.167 894.319 588.167 894.319 588.833 712.167 588.833ZM713.5 592.5 705.5 588.5 713.5 584.5ZM892.986 584.5 900.986 588.5 892.986 592.5Z"/><text font-family="Calibri,Calibri_MSFontService,sans-serif" font-weight="400" font-size="15" transform="translate(475.22 288)">Motion <tspan x="0" y="35">Orientation</tspan><tspan x="356.075" y="124">2</tspan>. Data Stream<tspan x="263.178" y="276">3</tspan>. Sensor Configuration <tspan x="278.598" y="293">and </tspan><tspan x="304.264" y="293">Data Analysis.</tspan><tspan x="278.931" y="329">Request</tspan>/Response<tspan x="-215.845" y="98">Sensors and </tspan>Microcontroller on Platform<tspan font-size="24" x="-147.858" y="-84">HALT</tspan><tspan font-size="24" x="-93.4517" y="-84">Platform</tspan><tspan x="112.923" y="-1">1</tspan>. Data<tspan x="158.589" y="-1">Stream</tspan><tspan x="-216.72" y="208">4</tspan>. Configuration<tspan x="-182.807" y="225">Data</tspan><tspan x="-154.991" y="-1">Motion </tspan></text><path d="M583.5 301.167 672.655 301.167 672.655 301.833 583.5 301.833ZM671.321 297.5 679.321 301.5 671.321 305.5Z"/></g></svg>